<?xml version="1.0" encoding="UTF-8"?>
<svg version="1.1" xmlns="http://www.w3.org/2000/svg" width="2000" height="2157">
<path d="M0 0 C0.99573029 -0.00885223 1.99146057 -0.01770447 3.0173645 -0.02682495 C15.14781436 -0.09990522 25.91283075 0.5962721 37.4375 4.5625 C38.59125122 4.93942993 38.59125122 4.93942993 39.76831055 5.32397461 C57.60725975 11.44995628 72.50289031 22.07324148 86.3125 34.6875 C86.82369385 35.15381836 87.3348877 35.62013672 87.86157227 36.10058594 C154.20280734 98.10656599 177.69059552 201.78460277 197.625 379.8125 C197.74322113 381.42460358 197.74322113 381.42460358 197.86383057 383.0692749 C200.5468899 420.05711358 202.16176704 457.11186421 203.54296875 494.16796875 C203.60959264 495.95409942 203.60959264 495.95409942 203.67756248 497.77631354 C205.7641263 554.24369509 205.95719365 610.67217241 205.78215015 667.17135322 C205.74273653 680.2782984 205.73344877 693.38522528 205.72387254 706.49221969 C205.68670948 752.50075737 205.55347713 798.50494611 204.84320068 844.50843811 C204.79769444 847.46224676 204.7523775 850.4160582 204.70727539 853.36987305 C204.69028504 854.47981186 204.69028504 854.47981186 204.67295146 855.61217368 C204.34562296 877.2215357 204.18224846 898.83265359 204.00140262 920.44363427 C203.9534901 926.13676218 203.90417492 931.82987791 203.85499573 937.522995 C203.69497511 956.10237199 203.53649804 974.6817579 203.38793945 993.26123047 C202.70973047 1077.76477095 201.0374173 1162.18446229 198.04064941 1246.63708496 C195.92928072 1304.62146387 195.92928072 1304.62146387 194.49135208 1362.62509537 C194.4335392 1365.778545 194.37231234 1368.93191784 194.3107605 1372.08529663 C193.28348041 1425.34150672 193.13842549 1478.60290923 192.92447662 1531.86727905 C192.49470632 1638.79936186 192.49470632 1638.79936186 191.4375 1681.5625 C191.41846115 1682.33809139 191.3994223 1683.11368279 191.37980652 1683.91277695 C191.16252322 1692.65227581 190.89003862 1701.38893216 190.5625 1710.125 C190.52081696 1711.26634399 190.47913391 1712.40768799 190.43618774 1713.58361816 C180.44489614 1985.07558072 180.44489614 1985.07558072 147.203125 2022.04760742 C144.44425719 2024.55635542 141.93249698 2026.16165119 138.6328125 2027.875 C137.50423828 2028.46853271 136.37566406 2029.06206543 135.21289062 2029.67358398 C134.61839111 2029.98109589 134.0238916 2030.28860779 133.41137695 2030.60543823 C130.23513137 2032.24960563 127.07584024 2033.92588667 123.9140625 2035.59765625 C123.27555359 2035.93426773 122.63704468 2036.27087921 121.97918701 2036.61769104 C116.24299195 2039.6476862 110.57707132 2042.79368757 104.9375 2046 C104.01807617 2046.52231201 103.09865234 2047.04462402 102.15136719 2047.58276367 C97.02960354 2050.5000842 91.91740338 2053.4340488 86.8046875 2056.3671875 C64.28512995 2069.28060006 41.6704766 2081.98134023 18.59765625 2093.88671875 C14.69882197 2095.89913645 10.82629428 2097.95321839 6.97436523 2100.05395508 C-8.23291715 2108.2004313 -23.18634247 2114.57738078 -40 2118.5625 C-40.84544373 2118.76805511 -41.69088745 2118.97361023 -42.56195068 2119.18539429 C-122.01915319 2138.48651158 -203.97875584 2143.64774735 -285.51171875 2143.64453125 C-286.46590887 2143.64475218 -287.42009899 2143.64497311 -288.40320396 2143.64520073 C-309.77785388 2143.63938997 -331.13750128 2143.21021655 -352.50500488 2142.69366455 C-357.30207334 2142.57889483 -362.0992859 2142.47050119 -366.89648438 2142.36132812 C-381.61666736 2142.02424934 -396.33648136 2141.67328354 -411.05566406 2141.29492188 C-432.59829744 2140.74149142 -454.13987107 2140.2492241 -475.6875 2139.9375 C-476.4464431 2139.92645107 -477.2053862 2139.91540215 -477.98732758 2139.9040184 C-554.14950338 2138.81050493 -632.58768883 2139.51324885 -707.31469727 2156.08959961 C-718.01363418 2158.37096975 -727.92144386 2158.21512081 -738.4375 2155.25 C-755.48517782 2150.84356248 -772.98400203 2149.0329326 -790.5625 2148.5625 C-791.27212891 2148.54058594 -791.98175781 2148.51867188 -792.71289062 2148.49609375 C-824.53525422 2147.63988666 -856.44644889 2151.44338898 -888.08081055 2154.44189453 C-888.77757117 2154.5078951 -889.4743318 2154.57389566 -890.19220638 2154.64189625 C-893.48620244 2154.95422744 -896.77999323 2155.26842315 -900.0735321 2155.58555603 C-903.56912403 2155.9197805 -907.06545205 2156.2438982 -910.5625 2156.5625 C-911.6236351 2156.66214554 -912.6847702 2156.76179108 -913.77806091 2156.86445618 C-922.3521863 2157.60771955 -930.8895507 2157.69254971 -939.48828125 2157.66015625 C-940.97185722 2157.65828547 -942.45543381 2157.65686469 -943.93901062 2157.65586853 C-947.79728984 2157.65209527 -951.65552993 2157.64231096 -955.51379395 2157.63116455 C-959.46947704 2157.6208372 -963.42516661 2157.61634693 -967.38085938 2157.61132812 C-975.10809053 2157.60068268 -982.83528973 2157.5836707 -990.5625 2157.5625 C-990.90023437 2156.45390625 -991.23796875 2155.3453125 -991.5859375 2154.203125 C-992.03627534 2152.73952702 -992.48680633 2151.27598845 -992.9375 2149.8125 C-993.15921875 2149.08289062 -993.3809375 2148.35328125 -993.609375 2147.6015625 C-994.69179356 2144.09962011 -995.75421724 2140.77346939 -997.5625 2137.5625 C-1000.52512426 2137.87992403 -1001.46649179 2138.45414787 -1003.4765625 2140.72265625 C-1006.34461545 2144.62729014 -1008.6171108 2148.79127917 -1010.9765625 2153.015625 C-1012.5625 2155.5625 -1012.5625 2155.5625 -1014.5625 2156.5625 C-1021.56005149 2157.50746849 -1026.45718818 2156.86958954 -1032.1171875 2152.609375 C-1035.11937754 2150.0963597 -1038.09189906 2147.55019661 -1041.0625 2145 C-1049.76588465 2137.01050195 -1049.76588465 2137.01050195 -1060.8125 2134.5 C-1068.11793375 2136.5698729 -1070.77891265 2141.19408481 -1074.86328125 2147.21875 C-1078.12257004 2151.71432074 -1082.40512268 2155.0224223 -1087.9375 2155.96875 C-1101.48525795 2156.4525985 -1110.92431684 2148.07128707 -1120.85302734 2139.95410156 C-1132.91617114 2129.58438185 -1132.91617114 2129.58438185 -1147.75 2125.125 C-1154.15636528 2125.86015667 -1158.30145735 2128.57665172 -1162.69140625 2133.1328125 C-1167.78349877 2139.7450913 -1171.6284304 2147.78796026 -1174.5625 2155.5625 C-1175.2225 2155.5625 -1175.8825 2155.5625 -1176.5625 2155.5625 C-1179.62929473 2147.37546933 -1180.45363176 2139.05087569 -1181.26956177 2130.42108154 C-1181.66178729 2126.30019434 -1182.09112986 2122.18325579 -1182.5234375 2118.06640625 C-1182.60898392 2117.2506311 -1182.69453033 2116.43485596 -1182.78266907 2115.59436035 C-1183.54001799 2108.50954945 -1184.49666618 2101.47386192 -1185.625 2094.4375 C-1185.77509521 2093.48157959 -1185.92519043 2092.52565918 -1186.07983398 2091.54077148 C-1187.14165422 2085.16017128 -1188.31678814 2078.64390732 -1190.5625 2072.5625 C-1191.5525 2072.0675 -1191.5525 2072.0675 -1192.5625 2071.5625 C-1194.1750588 2076.85860593 -1195.73727738 2082.16343199 -1197.2109375 2087.5 C-1197.78610618 2089.52093359 -1198.36162978 2091.5417662 -1198.9375 2093.5625 C-1199.35515625 2095.11517578 -1199.35515625 2095.11517578 -1199.78125 2096.69921875 C-1200.06742188 2097.68535156 -1200.35359375 2098.67148438 -1200.6484375 2099.6875 C-1200.8964209 2100.57695312 -1201.1444043 2101.46640625 -1201.39990234 2102.3828125 C-1202.94359427 2105.27699174 -1204.52573989 2105.55265604 -1207.5625 2106.5625 C-1210.54148327 2111.08017732 -1209.82051836 2116.79045601 -1209.75 2122 C-1209.74033203 2123.47291504 -1209.74033203 2123.47291504 -1209.73046875 2124.97558594 C-1209.6615495 2131.5336837 -1209.34414895 2138.01998414 -1208.78515625 2144.5546875 C-1208.46392415 2148.89413868 -1208.47232988 2153.21429639 -1208.5625 2157.5625 C-1210.2125 2157.5625 -1211.8625 2157.5625 -1213.5625 2157.5625 C-1216.36505526 2152.32522487 -1218.39956965 2147.47399153 -1219.5625 2141.625 C-1219.72564697 2140.8218335 -1219.88879395 2140.01866699 -1220.05688477 2139.19116211 C-1223.21917053 2122.68272732 -1224.65460254 2105.80952678 -1226.49589539 2089.11235046 C-1226.9294866 2085.18755562 -1227.36712843 2081.2632147 -1227.80447388 2077.33883667 C-1228.11694335 2074.51042717 -1228.42104413 2071.68120967 -1228.72436523 2068.85180664 C-1229.99214661 2057.25165605 -1231.64392089 2045.88042801 -1234.5625 2034.5625 C-1235.5525 2034.5625 -1236.5425 2034.5625 -1237.5625 2034.5625 C-1242.91038982 2047.20359993 -1242.91038982 2047.20359993 -1242.5625 2060.5625 C-1241.77875 2060.706875 -1240.995 2060.85125 -1240.1875 2061 C-1237.5625 2062.5625 -1237.5625 2062.5625 -1236.78515625 2064.3125 C-1234.61583822 2073.1797854 -1235.3926618 2082.09766721 -1236.4375 2091.0625 C-1236.51581055 2091.75738525 -1236.59412109 2092.45227051 -1236.67480469 2093.16821289 C-1237.12202797 2096.65646879 -1237.57543672 2098.58190508 -1239.5625 2101.5625 C-1242.32526177 2101.03981534 -1244.8885876 2100.45380413 -1247.5625 2099.5625 C-1248.68981917 2106.04691442 -1248.8132207 2112.49315143 -1249 2119.0625 C-1249.98333815 2146.89019548 -1249.98333815 2146.89019548 -1256.5625 2157.5625 C-1259.75 2158.0625 -1259.75 2158.0625 -1263.5625 2157.5625 C-1269.18816639 2151.51032365 -1271.82563766 2142.20481787 -1274.90039062 2134.69921875 C-1275.31611328 2133.71050781 -1275.73183594 2132.72179688 -1276.16015625 2131.703125 C-1276.52633057 2130.81141602 -1276.89250488 2129.91970703 -1277.26977539 2129.00097656 C-1278.68656622 2126.32847292 -1280.33272027 2124.58598759 -1282.5625 2122.5625 C-1283.490625 2123.408125 -1284.41875 2124.25375 -1285.375 2125.125 C-1286.95703125 2126.56640625 -1286.95703125 2126.56640625 -1288.5625 2127.5625 C-1289.5525 2127.2325 -1290.5425 2126.9025 -1291.5625 2126.5625 C-1292.48937325 2123.78188025 -1292.68443396 2122.14198141 -1292.67602539 2119.2746582 C-1292.67594986 2118.41399246 -1292.67587433 2117.55332672 -1292.67579651 2116.6665802 C-1292.67063522 2115.74149155 -1292.66547394 2114.81640289 -1292.66015625 2113.86328125 C-1292.65803383 2112.43800362 -1292.65803383 2112.43800362 -1292.65586853 2110.9839325 C-1292.65026875 2107.94758971 -1292.63771632 2104.91132052 -1292.625 2101.875 C-1292.61998497 2099.81705836 -1292.61542207 2097.75911556 -1292.61132812 2095.70117188 C-1292.6002994 2090.65491954 -1292.58303493 2085.60872225 -1292.5625 2080.5625 C-1296.38713366 2082.29002359 -1297.55194009 2083.77143537 -1299.47265625 2087.54296875 C-1299.98763672 2088.54263672 -1300.50261719 2089.54230469 -1301.03320312 2090.57226562 C-1301.55849609 2091.62091797 -1302.08378906 2092.66957031 -1302.625 2093.75 C-1303.15416016 2094.77931641 -1303.68332031 2095.80863281 -1304.22851562 2096.86914062 C-1306.86373115 2102.03045986 -1309.36962959 2107.19793468 -1311.5625 2112.5625 C-1315.62763765 2110.79857493 -1318.9876379 2108.08789154 -1322.5 2105.4375 C-1329.29386593 2100.4012062 -1336.21337012 2095.76031669 -1343.5625 2091.5625 C-1344.55830078 2090.98483887 -1344.55830078 2090.98483887 -1345.57421875 2090.39550781 C-1396.95163972 2060.8932638 -1455.19870634 2062.3063349 -1512.52758789 2062.04681396 C-1519.34404585 2062.01523183 -1526.16037664 2061.97583686 -1532.97673035 2061.92655945 C-1536.10971003 2061.90693307 -1539.24258306 2061.898271 -1542.37561035 2061.89025879 C-1600.20597817 2061.58132663 -1654.00417324 2045.50665577 -1697.5625 2006.5625 C-1698.35744873 2005.852146 -1698.35744873 2005.852146 -1699.16845703 2005.12744141 C-1730.52326363 1976.97345771 -1754.05871915 1942.23986992 -1774.41699219 1905.56469727 C-1775.33555555 1903.9591691 -1776.34043271 1902.40316184 -1777.37109375 1900.8671875 C-1785.20201589 1885.71884632 -1774.78856311 1854.70506591 -1771.6484375 1839.1875 C-1768.97627592 1825.7395564 -1767.04920799 1811.26321373 -1774.625 1799.0625 C-1779.1115892 1791.75046694 -1778.85431598 1782.6032459 -1778.87109375 1774.29296875 C-1778.89376092 1772.10245303 -1778.91689138 1769.91194207 -1778.94042969 1767.72143555 C-1778.94957397 1766.5845932 -1778.95871826 1765.44775085 -1778.96813965 1764.27645874 C-1779.17631622 1741.23446237 -1780.21125646 1718.47712497 -1782.5625 1695.5625 C-1782.66042847 1694.60162476 -1782.75835693 1693.64074951 -1782.85925293 1692.65075684 C-1783.83460283 1683.09006399 -1784.81787243 1673.53023697 -1785.84863281 1663.9753418 C-1787.76637857 1646.18194369 -1788.78622981 1628.64793193 -1788.8125 1610.75 C-1788.81649811 1609.70414734 -1788.82049622 1608.65829468 -1788.82461548 1607.58074951 C-1788.85657474 1595.78111968 -1788.67152973 1584.34990184 -1786.75 1572.6875 C-1785.01394197 1561.9772306 -1786.82754615 1553.02170581 -1789.26953125 1542.546875 C-1795.22188149 1516.53814519 -1789.56651563 1488.97966067 -1785.12695312 1463.16552734 C-1781.60153867 1442.62337548 -1780.31376817 1423.19224638 -1780.75439453 1402.33325195 C-1780.81502 1399.25209357 -1780.85035826 1396.17140964 -1780.8828125 1393.08984375 C-1780.90973175 1392.16469467 -1780.936651 1391.23954559 -1780.96438599 1390.28636169 C-1781.01266703 1383.9832397 -1779.86262919 1378.99193768 -1776.5625 1373.5625 C-1773.1819915 1370.34296809 -1770.93077418 1368.63994948 -1766.25 1368.375 C-1762.7482343 1368.55305588 -1760.74262267 1369.27326108 -1757.5625 1370.5625 C-1755.49133856 1370.40801053 -1755.49133856 1370.40801053 -1753.5625 1369.5625 C-1748.67684594 1359.79119189 -1748.42781779 1348.23862124 -1747.93066406 1337.5144043 C-1747.2617105 1323.11291893 -1745.59879562 1309.45699087 -1741.5625 1295.5625 C-1741.21396973 1294.35134521 -1741.21396973 1294.35134521 -1740.85839844 1293.11572266 C-1733.33905751 1267.60478126 -1720.97577565 1251.24760571 -1698.12329102 1237.57836914 C-1691.81147626 1233.78568813 -1685.78989098 1229.78989098 -1680.5625 1224.5625 C-1680.12414611 1217.85316953 -1681.1472428 1211.36236206 -1682.1015625 1204.73046875 C-1682.43591139 1202.32754727 -1682.76970773 1199.92454885 -1683.10302734 1197.52148438 C-1683.36850372 1195.62402466 -1683.36850372 1195.62402466 -1683.63934326 1193.68823242 C-1695.67071112 1107.2488627 -1704.99096608 1017.17496271 -1688.95654297 930.57666016 C-1687.37866309 921.88735159 -1687.44912687 916.07992169 -1692.5625 908.5625 C-1692.97757813 907.79035156 -1693.39265625 907.01820313 -1693.8203125 906.22265625 C-1697.28291013 900.15792687 -1702.0469093 896.76088194 -1707.65625 892.734375 C-1725.34790418 879.51319258 -1727.10481884 853.84441274 -1730.5625 833.5625 C-1731.2225 833.5625 -1731.8825 833.5625 -1732.5625 833.5625 C-1734.15219247 835.58041336 -1734.15219247 835.58041336 -1735.6875 838.0625 C-1736.22632813 838.8978125 -1736.76515625 839.733125 -1737.3203125 840.59375 C-1737.93519531 841.56828125 -1737.93519531 841.56828125 -1738.5625 842.5625 C-1742.4375 841.6875 -1742.4375 841.6875 -1743.5625 840.5625 C-1743.74703199 837.95417792 -1743.87046061 835.36610023 -1743.95703125 832.75390625 C-1744.023006 831.06239213 -1744.08969044 829.37090559 -1744.15698242 827.67944336 C-1744.20923477 826.32542923 -1744.20923477 826.32542923 -1744.26254272 824.94406128 C-1746.72167758 763.29885573 -1757.18674282 702.90320364 -1767.85742188 642.26025391 C-1783.11343765 555.55340386 -1783.11343765 555.55340386 -1786.83544922 525.36962891 C-1787.35762071 521.14677483 -1787.91225786 516.92923919 -1788.48095703 512.71240234 C-1792.64496858 481.64618086 -1795.23840035 450.94230942 -1795.24863434 419.58086777 C-1795.2499757 417.2914787 -1795.25757893 415.00217239 -1795.26580811 412.71279907 C-1795.37628411 362.97941711 -1785.37583664 312.49810385 -1749.09863281 276.02832031 C-1727.50157647 255.41981328 -1699.30662064 244.01618872 -1671.91381836 233.41796875 C-1650.25692264 225.57079266 -1650.25692264 225.57079266 -1631.5625 212.5625 C-1630.9025 212.5625 -1630.2425 212.5625 -1629.5625 212.5625 C-1629.335625 211.985 -1629.10875 211.4075 -1628.875 210.8125 C-1626.13836538 206.12112637 -1621.48922016 203.84811625 -1616.70703125 201.6015625 C-1615.54534424 201.05491943 -1614.38365723 200.50827637 -1613.18676758 199.94506836 C-1611.91660508 199.35828772 -1610.64600195 198.77246012 -1609.375 198.1875 C-1608.7203476 197.88425812 -1608.06569519 197.58101624 -1607.39120483 197.26858521 C-1569.2148917 179.61610972 -1529.68524244 165.1160665 -1489.66906738 152.24163818 C-1487.66960786 151.5970306 -1485.67201202 150.94695645 -1483.67480469 150.29541016 C-1425.50561352 131.44919894 -1365.03042594 119.21092092 -1304.5625 110.5625 C-1303.18756378 110.36557556 -1303.18756378 110.36557556 -1301.78485107 110.16467285 C-1259.17726265 104.10085258 -1216.33783547 100.2351693 -1173.375 97.8125 C-1172.32616638 97.75333405 -1171.27733276 97.69416809 -1170.19671631 97.63320923 C-1143.32954621 96.1448962 -1116.48943758 95.39888572 -1089.5833714 95.36266518 C-1087.35101695 95.35930359 -1085.11867064 95.35439529 -1082.88632011 95.3490448 C-1072.40925444 95.32425873 -1061.93222157 95.31449212 -1051.45512819 95.31293678 C-1048.92553852 95.31249792 -1046.39594925 95.31163197 -1043.86635971 95.31071472 C-989.16661688 95.29452907 -934.56970548 96.0781702 -879.90686226 98.20378971 C-858.73489943 99.02410219 -837.5592684 99.75050448 -816.3845253 100.49481201 C-812.70680023 100.62432036 -809.02910272 100.75458869 -805.35140991 100.88500977 C-760.22916147 102.48224393 -715.10956452 103.72205618 -669.9645462 104.43590832 C-663.72704682 104.53708403 -657.49078399 104.67266905 -651.25422859 104.82006073 C-645.12650946 104.96234119 -638.99894682 105.05736167 -632.87005615 105.13269043 C-630.52722144 105.16756017 -628.18451836 105.21564578 -625.84234619 105.28137207 C-601.6641433 105.93689276 -578.21129045 101.05700539 -554.5625 96.5625 C-553.57916183 96.37573448 -552.59582367 96.18896896 -551.58268738 95.99654388 C-537.78282807 93.36651073 -524.00935784 90.6092594 -510.24129105 87.81822968 C-505.96349205 86.95241364 -501.68453866 86.09237634 -497.40558529 85.23228645 C-470.26150287 79.77578059 -443.13564787 74.2311947 -416.01482296 68.66042805 C-322.98792918 49.55305658 -229.48781713 31.17789316 -134.30712891 28.24511719 C-119.08315827 27.76091968 -106.52966124 25.45941845 -92.23495483 20.25512695 C-88.11399254 18.75789781 -83.9806552 17.29563901 -79.84765625 15.83203125 C-79.03678055 15.54449982 -78.22590485 15.25696838 -77.39045715 14.96072388 C-68.39410101 11.7799578 -59.36685982 8.78691308 -50.15820312 6.27685547 C-48.44022852 5.80405696 -46.72765905 5.31111726 -45.02148438 4.79736328 C-30.13200687 0.37864192 -15.41850987 0.06435473 0 0 Z " fill="#C10000" transform="translate(1794.5625,-0.5625)"/>
<path d="M0 0 C4.80895793 0.00008078 9.61781961 -0.00679918 14.42675781 -0.02050781 C39.28579194 -0.09013769 64.1104996 0.01349415 88.95043945 1.07202148 C90.35403874 1.13044188 90.35403874 1.13044188 91.78599358 1.1900425 C105.34130502 1.77073226 118.82021354 2.85872599 132.3215332 4.18530273 C134.08724455 4.35678881 135.852961 4.52822238 137.61868286 4.69960022 C142.35437255 5.16036005 147.08825621 5.63792872 151.8215332 6.12280273 C152.65983673 6.20867645 153.49814026 6.29455017 154.36184692 6.38302612 C171.92933913 8.19167423 189.39710429 10.22371251 206.72973633 13.67700195 C209.97074507 14.31262556 213.21637809 14.92217134 216.4621582 15.53295898 C240.56387701 20.08175259 263.96606906 25.60418062 287.3215332 33.18530273 C288.94913574 33.71148193 288.94913574 33.71148193 290.60961914 34.24829102 C332.48826862 47.91362612 372.37399039 67.37308582 404.3215332 98.18530273 C405.01472656 98.85126465 405.70791992 99.51722656 406.42211914 100.20336914 C415.65608505 109.12104884 424.45515766 118.09048411 432.05053711 128.45678711 C433.3855893 130.27241706 434.74790393 132.06519605 436.11450195 133.85717773 C442.49466871 142.29156484 448.0987313 150.99634431 453.3215332 160.18530273 C453.99587402 161.34980957 453.99587402 161.34980957 454.68383789 162.5378418 C482.02866928 209.91456728 495.55433964 263.01275386 503.0715332 316.81030273 C503.17258362 317.52918671 503.27363403 318.24807068 503.37774658 318.98873901 C503.97897122 323.30938215 504.53418713 327.63361519 505.05111694 331.96514893 C505.22841521 333.42079147 505.4141788 334.87543337 505.60928345 336.32879639 C508.11631849 355.16629479 507.59203437 374.19802237 507.51937485 393.15877914 C507.50892375 396.09101031 507.50180571 399.02323149 507.49575806 401.95547485 C507.46833502 415.06214732 507.41236102 428.16853117 507.33789062 441.27501678 C507.32196538 444.1084104 507.30699008 446.94180759 507.29223633 449.77520752 C507.01722708 501.45727376 505.14186297 552.6108509 501.3215332 604.18530273 C433.0115332 604.18530273 364.7015332 604.18530273 294.3215332 604.18530273 C294.8950945 597.87612851 295.4772803 591.64620826 296.2590332 585.37280273 C297.96823314 571.09004762 299.31079863 556.80563991 299.87182617 542.4284668 C299.91421858 541.34692448 299.95661098 540.26538216 300.00028801 539.15106583 C300.40692438 528.03120552 300.4670605 516.92072133 300.4543457 505.79467773 C300.4550239 503.62892649 300.45599813 501.46317531 300.45724487 499.29742432 C300.458704 494.78657294 300.45662995 490.27574159 300.4519043 485.76489258 C300.44627603 480.13310683 300.44955208 474.50136905 300.45534134 468.86958504 C300.47497841 446.35833044 300.36769094 423.85581195 299.8762207 401.34936523 C299.85680546 400.42764275 299.83739021 399.50592026 299.81738663 398.55626678 C299.53288313 385.4231493 298.87596949 372.3758126 297.78637695 359.28295898 C297.37600654 354.24092245 297.1435069 349.21072109 296.97900391 344.15527344 C295.73698595 306.13164407 285.82707864 268.76520981 258.3215332 241.18530273 C245.70764107 229.40634618 230.2980288 221.4051598 214.3215332 215.18530273 C213.7135791 214.94215332 213.105625 214.69900391 212.47924805 214.44848633 C182.07548208 202.39816549 147.81955788 198.24351282 115.4465332 194.93530273 C114.7135199 194.85826111 113.98050659 194.78121948 113.22528076 194.70184326 C80.85741514 191.35953405 48.32037381 190.80649331 15.80962372 190.86764908 C12.83509611 190.87288894 9.86057901 190.87480274 6.88604736 190.87631226 C-17.20341925 190.89755074 -41.2477133 191.13003009 -65.3034668 192.49780273 C-66.879814 192.58594742 -66.879814 192.58594742 -68.48800659 192.6758728 C-82.64608174 193.50022701 -96.67828107 195.03308785 -110.74441528 196.82072449 C-114.7881998 197.32319551 -118.83648007 197.78255861 -122.88580322 198.23794556 C-167.48653353 203.3862082 -220.881596 215.23298126 -250.82250977 251.96630859 C-252.88372815 254.63542696 -254.8092283 257.3790237 -256.6784668 260.18530273 C-257.06196289 260.75974121 -257.44545898 261.33417969 -257.84057617 261.92602539 C-266.75121984 275.51960783 -273.56397303 290.45341481 -277.6784668 306.18530273 C-278.01491211 307.42924805 -278.35135742 308.67319336 -278.69799805 309.95483398 C-283.137654 327.05258506 -284.79312716 344.36951162 -285.26733398 361.98681641 C-285.57743633 372.47492089 -286.30859123 382.91271534 -287.1159668 393.37280273 C-287.2085376 394.60087646 -287.2085376 394.60087646 -287.30297852 395.85375977 C-287.48455008 398.24983013 -287.67219553 400.64534521 -287.86206055 403.04077148 C-287.91418198 403.72556076 -287.96630341 404.41035004 -288.02000427 405.1158905 C-288.36502579 409.33385127 -288.85476272 413.51124419 -289.43119049 417.70433998 C-290.63426044 426.61493651 -291.0177487 435.43613173 -291.04956055 444.42358398 C-291.06058597 445.94275083 -291.07186377 447.46191586 -291.08337402 448.9810791 C-291.11405662 453.82002005 -291.11747855 458.65877926 -291.1159668 463.49780273 C-291.11643635 464.32312374 -291.1169059 465.14844475 -291.11738968 465.99877548 C-291.12593625 492.69815676 -290.17514268 518.81185516 -285.6784668 545.18530273 C-285.40272175 546.84268725 -285.1270061 548.50007666 -284.85131836 550.1574707 C-276.76356242 598.17058129 -264.95380434 641.14700101 -224.6784668 672.18530273 C-224.14898438 672.59458008 -223.61950195 673.00385742 -223.07397461 673.42553711 C-201.49156691 689.72058292 -175.27771184 698.4782924 -149.6784668 706.18530273 C-148.66961426 706.49016602 -147.66076172 706.7950293 -146.62133789 707.10913086 C-121.88517835 714.41684128 -95.92291547 718.93184507 -70.44165039 722.74829102 C-61.69447513 724.09366948 -53.10402083 726.00032987 -44.47998047 727.97485352 C-37.73315061 729.51790512 -30.98604776 730.93837939 -24.1784668 732.18530273 C-16.23713453 733.64491976 -8.36584486 735.34005438 -0.4909668 737.12280273 C8.31688708 739.11479675 17.13291866 740.96139899 26.0090332 742.62280273 C35.52949864 744.40811551 44.99163574 746.39399443 54.4465332 748.49780273 C66.7909023 751.24318587 79.16663528 753.79083782 91.5715332 756.24780273 C114.83674613 760.86279711 138.00534876 765.75103204 161.04663086 771.39233398 C164.53403881 772.2367578 168.02661686 773.05668159 171.52075195 773.87280273 C185.76245506 777.21683348 199.7665528 780.95309286 213.71166992 785.37084961 C216.1902483 786.144333 218.67558029 786.88380184 221.16918945 787.60717773 C292.42812514 808.28372363 364.63015668 839.60211562 419.9855957 890.06811523 C422.09072068 891.97610476 424.22766954 893.83577343 426.3840332 895.68530273 C433.63507495 902.03360435 440.07016909 908.86299879 446.08325195 916.39233398 C447.51762901 918.18217622 448.97671054 919.9526598 450.46606445 921.69702148 C472.81753721 947.99524078 487.95001004 979.86407067 499.3215332 1012.18530273 C499.57386719 1012.90218262 499.82620117 1013.6190625 500.08618164 1014.35766602 C507.32604093 1035.31711182 512.02374187 1057.28968343 515.3215332 1079.18530273 C515.46042969 1080.08909668 515.59932617 1080.99289062 515.74243164 1081.92407227 C519.40951944 1106.07939531 520.62964183 1130.01152995 520.55725265 1154.42682219 C520.54826027 1158.12077827 520.55023364 1161.8147327 520.5506134 1165.50869751 C520.54968538 1171.70593418 520.54112244 1177.90312104 520.52734375 1184.1003418 C520.51164176 1191.18717048 520.50634579 1198.27394482 520.5070793 1205.36078966 C520.50776371 1213.01635571 520.50077371 1220.67190182 520.4916327 1228.32746172 C520.48953781 1230.48432401 520.48879661 1232.64118291 520.48839378 1234.79804611 C520.47935771 1259.74437712 519.68443775 1284.57996906 518.01928711 1309.47045898 C517.81686382 1312.50530883 517.6216628 1315.54057101 517.42700195 1318.57592773 C517.29851285 1320.53428848 517.16962283 1322.49262298 517.0402832 1324.45092773 C516.98296021 1325.34459045 516.92563721 1326.23825317 516.86657715 1327.15899658 C516.56754947 1331.56641841 516.05793951 1335.82664422 515.3215332 1340.18530273 C515.15732085 1342.61864671 515.02015433 1345.05390005 514.90356445 1347.48999023 C514.42195661 1356.17457503 513.2856035 1364.71171448 512.0090332 1373.31030273 C511.7838424 1374.85383943 511.55866351 1376.39737786 511.33349609 1377.94091797 C509.59736105 1389.73923657 507.68421021 1401.4944632 505.3215332 1413.18530273 C505.17393555 1413.9178125 505.02633789 1414.65032227 504.87426758 1415.4050293 C503.79099684 1420.69014973 502.57497301 1425.93827556 501.3215332 1431.18530273 C501.0965918 1432.14968262 500.87165039 1433.1140625 500.63989258 1434.10766602 C494.58866471 1459.80941814 485.7653771 1484.38668696 474.3215332 1508.18530273 C473.75233154 1509.39307373 473.75233154 1509.39307373 473.17163086 1510.62524414 C456.47997736 1545.95880254 431.86044681 1580.3264525 401.1496582 1604.91186523 C399.34768375 1606.36041376 397.56401448 1607.83225196 395.8059082 1609.33374023 C382.86141897 1620.33258538 368.30737587 1629.25606559 353.3215332 1637.18530273 C352.39171631 1637.67909424 352.39171631 1637.67909424 351.44311523 1638.18286133 C305.71764453 1662.24701101 255.99935856 1675.55141836 205.3215332 1684.18530273 C204.61174316 1684.30669617 203.90195313 1684.4280896 203.1706543 1684.55316162 C186.27516979 1687.43563544 169.33730315 1690.11296896 152.3215332 1692.18530273 C151.12230225 1692.33491455 149.92307129 1692.48452637 148.6875 1692.63867188 C135.67865814 1694.20540465 122.62691036 1695.10618557 109.55664062 1695.99023438 C105.78971883 1696.24572152 102.02340239 1696.5090323 98.25708008 1696.77319336 C95.77729475 1696.94358707 93.29747792 1697.11352317 90.81762695 1697.28295898 C89.73444687 1697.35901871 88.65126678 1697.43507843 87.53526306 1697.51344299 C66.54605895 1698.91534658 45.55205214 1699.36317904 24.52075195 1699.42358398 C22.6650656 1699.42969728 22.6650656 1699.42969728 20.77189064 1699.43593407 C14.86225166 1699.45451601 8.95262798 1699.46910547 3.04296559 1699.47754604 C-2.91435925 1699.48621584 -8.87137115 1699.50576068 -14.82861328 1699.54199219 C-43.9368973 1699.71479237 -72.89646462 1699.32884023 -101.9362793 1697.34545898 C-103.15212015 1697.2626449 -104.36796101 1697.17983082 -105.62064552 1697.09450722 C-130.40947853 1695.36623443 -155.07677548 1692.67026679 -179.6784668 1689.18530273 C-180.8913739 1689.01414948 -180.8913739 1689.01414948 -182.12878418 1688.83953857 C-201.4474315 1686.0852939 -220.4244835 1682.03230644 -239.4284668 1677.62280273 C-240.43106537 1677.3911441 -241.43366394 1677.15948547 -242.46664429 1676.92080688 C-253.03200468 1674.46395627 -263.39697536 1671.81108714 -273.64233398 1668.23730469 C-277.20806159 1667.00180129 -280.78132845 1666.02476821 -284.4284668 1665.06030273 C-320.64930972 1654.80619674 -355.97960229 1636.0606903 -385.2409668 1612.43530273 C-386.20498413 1611.6573938 -386.20498413 1611.6573938 -387.18847656 1610.86376953 C-391.0344746 1607.69904822 -394.60049602 1604.36036333 -398.06689453 1600.78369141 C-399.698475 1599.16545821 -401.40089603 1597.70275017 -403.1784668 1596.24780273 C-406.30881514 1593.60117268 -408.96885017 1590.74462125 -411.6159668 1587.61889648 C-413.17826022 1585.77550861 -414.7593859 1583.96200613 -416.3659668 1582.15795898 C-451.10623098 1542.86631691 -472.76130684 1492.93556202 -485.11889648 1442.37695312 C-485.73789122 1439.95255706 -486.43337424 1437.55514697 -487.1237793 1435.15014648 C-488.91277984 1428.62509151 -490.12052048 1422.00982362 -491.3034668 1415.35498047 C-491.67255383 1413.28102855 -492.04985977 1411.20870722 -492.4284668 1409.13647461 C-495.71548623 1390.99343735 -498.18880393 1372.86602008 -499.8034668 1354.49780273 C-499.88940094 1353.54328217 -499.97533508 1352.5887616 -500.06387329 1351.60531616 C-501.31427838 1337.67948416 -502.31913592 1323.79004143 -502.53662109 1309.80371094 C-502.6595697 1307.53413475 -502.88678804 1305.32471378 -503.15600586 1303.06933594 C-503.76001321 1297.79973621 -504.00691 1292.53826552 -504.21362305 1287.23999023 C-504.27842865 1285.61683647 -504.27842865 1285.61683647 -504.34454346 1283.96089172 C-505.47018453 1254.70589042 -505.92083293 1225.46372206 -505.98307419 1196.18820953 C-505.99082716 1193.42261495 -506.00424254 1190.65710401 -506.01931763 1187.89154053 C-506.11569388 1168.72345095 -505.8310364 1149.66613686 -504.34643555 1130.54858398 C-504.28807337 1129.78897055 -504.22971119 1129.02935711 -504.16958046 1128.24672508 C-503.11100804 1114.82629696 -501.35010054 1101.55837272 -499.6784668 1088.18530273 C-434.0084668 1088.18530273 -368.3384668 1088.18530273 -300.6784668 1088.18530273 C-301.0084668 1112.27530273 -301.3384668 1136.36530273 -301.6784668 1161.18530273 C-301.75751805 1177.50008619 -301.82892046 1193.81143907 -301.80723953 1210.1258812 C-301.80334221 1213.35089914 -301.80136269 1216.57591398 -301.79977417 1219.80093384 C-301.78411655 1246.82714641 -301.67308777 1273.84979391 -301.2409668 1300.87280273 C-301.2214093 1302.10805695 -301.20185181 1303.34331116 -301.18170166 1304.61599731 C-300.96927032 1317.46132549 -300.64547093 1330.30223665 -300.22143555 1343.14233398 C-300.18643448 1344.27233322 -300.15143341 1345.40233246 -300.1153717 1346.5665741 C-298.7247896 1385.95870837 -288.08851805 1424.06517699 -260.6784668 1453.18530273 C-260.08936523 1453.85045898 -259.50026367 1454.51561523 -258.89331055 1455.20092773 C-213.39039812 1504.404077 -117.94562936 1505.64271019 -56.34315109 1508.09508514 C-42.22529514 1508.57307008 -28.08702351 1508.47900884 -13.96313477 1508.44604492 C-9.056655 1508.43469905 -4.15039349 1508.44141617 0.75607872 1508.45291901 C34.69490721 1508.52037667 68.67697309 1507.82683912 102.4465332 1504.18530273 C104.09487101 1504.01765296 105.74331025 1503.8509977 107.3918457 1503.68530273 C135.92485717 1500.78267732 164.91403081 1496.91488985 192.3215332 1488.18530273 C193.16055176 1487.92942383 193.99957031 1487.67354492 194.86401367 1487.40991211 C234.03829156 1475.4270327 266.85736579 1455.89244224 286.9465332 1419.18530273 C295.14006219 1403.4909344 300.18245086 1387.08104343 302.91577148 1369.63305664 C303.18398259 1368.01507554 303.48401752 1366.40201628 303.81713867 1364.79614258 C305.68778439 1355.67125572 306.11755139 1346.46127077 306.6965332 1337.18530273 C306.94586176 1333.26051642 307.19986489 1329.33606565 307.45825195 1325.41186523 C307.55832298 1323.88935654 307.55832298 1323.88935654 307.66041565 1322.33609009 C308.11860913 1315.59106275 308.71826403 1308.87159555 309.40356445 1302.14624023 C312.15347678 1274.34518348 312.70416711 1246.73006328 312.69714737 1218.81201935 C312.69653911 1215.83917251 312.69906761 1212.8663391 312.70175171 1209.89349365 C312.70372113 1205.13333286 312.69186666 1200.37337961 312.66924477 1195.61327362 C312.66157704 1193.85401135 312.65657722 1192.09473478 312.65465355 1190.33545685 C312.62501422 1173.69906161 311.53207141 1157.06756021 308.5090332 1140.68530273 C308.33799072 1139.73937256 308.16694824 1138.79344238 307.99072266 1137.81884766 C300.2418813 1096.03628855 284.12209069 1051.21000505 248.0715332 1025.49780273 C231.16621186 1014.34190452 213.26663406 1005.91975282 194.19433594 999.20581055 C191.976528 998.41797701 189.76761024 997.61329194 187.56005859 996.79760742 C177.34362026 993.05828451 167.07747881 990.12095177 156.5090332 987.56030273 C154.92102398 987.16974765 153.33305235 986.7790397 151.74511719 986.38818359 C137.15613569 982.81979113 122.54473954 979.62731183 107.6574707 977.57983398 C105.3215332 977.18530273 105.3215332 977.18530273 103.3215332 976.18530273 C101.19961752 975.91035028 99.07371354 975.66601644 96.9465332 975.43530273 C89.05238341 974.47192284 81.50903469 972.58331772 73.8215332 970.59155273 C68.0732342 969.10492368 62.29665262 967.75937747 56.5090332 966.43530273 C55.44773193 966.19199219 54.38643066 965.94868164 53.29296875 965.69799805 C50.95671968 965.16275104 48.62036955 964.627945 46.28393555 964.09350586 C39.31143703 962.49698367 32.34268735 960.88413778 25.37319946 959.27453613 C21.13733997 958.2963871 16.90130322 957.31900633 12.6652832 956.34155273 C11.04028236 955.9665564 9.41528233 955.5915565 7.7902832 955.21655273 C7.02780273 955.0405957 6.26532227 954.86463867 5.47973633 954.68334961 C-3.5847168 952.59155273 -3.5847168 952.59155273 -6.67993164 951.87719727 C-8.68542165 951.41444212 -10.69095581 950.95187823 -12.6965332 950.48950195 C-18.22948684 949.21360059 -23.7616782 947.93448443 -29.2928772 946.65100098 C-47.21209297 942.49380731 -65.1409497 938.39224371 -83.1038208 934.42758179 C-92.36393925 932.38295739 -101.60552504 930.28239957 -110.8203125 928.04101562 C-117.83489493 926.35015637 -124.88450145 924.83219169 -131.93817139 923.31488037 C-143.94218584 920.72976823 -155.89170974 917.9806512 -167.8034668 914.99780273 C-168.45425201 914.83549164 -169.10503723 914.67318054 -169.77554321 914.50595093 C-178.79852845 912.24959502 -187.75044603 909.79092619 -196.6784668 907.18530273 C-197.49444336 906.94884033 -198.31041992 906.71237793 -199.15112305 906.46875 C-205.01006836 904.76185968 -210.84618656 902.98092568 -216.6784668 901.18530273 C-217.79398926 900.84257324 -218.90951172 900.49984375 -220.05883789 900.14672852 C-248.72956891 891.27680617 -276.76442119 880.86523044 -304.06860352 868.37719727 C-306.43359915 867.29713097 -308.80624996 866.23667939 -311.18237305 865.18139648 C-338.07206406 853.07664179 -363.97550521 837.01804864 -386.6784668 818.18530273 C-387.19296387 817.76104004 -387.70746094 817.33677734 -388.23754883 816.8996582 C-395.03967302 811.27947047 -401.55488149 805.55060851 -407.6784668 799.18530273 C-410.08256656 796.76187741 -412.49747388 794.35795638 -414.9675293 792.00170898 C-421.95582723 785.25881951 -427.87485374 777.95208743 -433.6784668 770.18530273 C-434.11191406 769.60731934 -434.54536133 769.02933594 -434.99194336 768.43383789 C-445.1174142 754.84237002 -453.40545193 740.47737695 -460.6784668 725.18530273 C-461.13938721 724.23953369 -461.13938721 724.23953369 -461.60961914 723.2746582 C-471.94249355 701.97026896 -480.14461675 678.58086679 -485.16699219 655.44873047 C-485.76802135 652.78899712 -486.44135829 650.15153848 -487.1159668 647.50952148 C-490.05505355 635.83049463 -492.33384433 623.99519341 -494.6784668 612.18530273 C-494.87617676 611.19062988 -495.07388672 610.19595703 -495.27758789 609.17114258 C-498.5382592 592.45909152 -500.46197334 575.58972282 -502.20825195 558.66479492 C-502.50211877 555.82709833 -502.8123107 552.99236386 -503.14477539 550.15893555 C-505.59408433 528.99161051 -505.96849367 507.86158399 -505.98854065 486.57362747 C-505.99093029 484.4059179 -505.99624821 482.23822952 -506.00183105 480.07052612 C-506.03395325 463.02597448 -505.60369278 446.1378858 -503.6784668 429.18530273 C-503.59587616 428.4452298 -503.51328552 427.70515686 -503.42819214 426.94265747 C-502.92334424 422.49433883 -502.34681007 418.05835407 -501.7409668 413.62280273 C-501.5843457 412.41301758 -501.42772461 411.20323242 -501.26635742 409.95678711 C-500.47803946 404.08680197 -499.5150615 398.38830739 -498.1081543 392.63452148 C-496.19240465 383.99828111 -496.07265119 375.34653795 -495.82727051 366.52972412 C-494.6561085 326.23396535 -490.32539676 285.17352669 -479.6784668 246.18530273 C-479.43016113 245.25959473 -479.18185547 244.33388672 -478.92602539 243.38012695 C-466.34151424 196.89825366 -445.67793915 151.11259082 -412.73706055 115.43139648 C-410.94467718 113.47575998 -409.24806736 111.47486016 -407.5534668 109.43530273 C-360.05952379 55.14084133 -284.83257041 32.31389917 -216.6784668 18.18530273 C-215.28144531 17.88994629 -215.28144531 17.88994629 -213.85620117 17.58862305 C-175.72415197 9.56795129 -136.63442295 5.26736966 -97.8034668 2.49780273 C-96.96326996 2.43686432 -96.12307312 2.3759259 -95.25741577 2.31314087 C-63.52977345 0.04768798 -31.79173939 -0.0027508 0 0 Z " fill="#FEFEFE" transform="translate(992.678466796875,228.814697265625)"/>
</svg>
